<svg xmlns="http://www.w3.org/2000/svg" viewBox="0 0 48 48">
  <defs>
    <clipPath id="c"><circle cx="24" cy="24" r="21"/></clipPath>
  </defs>
  <circle cx="24" cy="24" r="21" fill="#FFFFFF" stroke="#4C4C7C" stroke-width="2"/>
  <g clip-path="url(#c)">
    <path d="M2 18C10 16 15 10 24 10s14 4 24 1v13H2z" fill="#8FCBC3"/>
    <path d="M1 25c8-2 14-7 22-7 9 0 15 6 25 8v9H1z" fill="#6C8EAD"/>
    <g fill="#A7DCD4">
      <circle cx="8" cy="8" r="1.6"/><circle cx="14" cy="6" r="1.5"/>
      <circle cx="20" cy="8" r="1.7"/><circle cx="27" cy="6" r="1.5"/>
      <circle cx="34" cy="8" r="1.6"/><circle cx="40" cy="6" r="1.4"/>
      <circle cx="11" cy="12" r="1.4"/><circle cx="18" cy="12" r="1.5"/>
      <circle cx="31" cy="12" r="1.5"/><circle cx="38" cy="11" r="1.4"/>
    </g>
    <g fill="#4C4C7C">
      <rect x="5" y="31" width="5" height="15"/><rect x="11" y="28" width="5" height="18"/>
      <rect x="17" y="25" width="5" height="21"/><rect x="23" y="27" width="5" height="19"/>
      <rect x="29" y="31" width="5" height="15"/><rect x="35" y="34" width="5" height="12"/>
      <rect x="41" y="37" width="5" height="9"/>
    </g>
  </g>
</svg>
